HIERARCHY
ROOT root
{
	OFFSET 0.000000 0.000000 0.000000
	CHANNELS 6 Xposition Yposition Zposition Zrotation Yrotation Xrotation
	JOINT lhip
	{
		OFFSET 0.058581 -0.082280 -0.017664
		CHANNELS 3 Zrotation Yrotation Xrotation
		JOINT lknee
		{
			OFFSET 0.043451 -0.386469 0.008037
			CHANNELS 3 Zrotation Yrotation Xrotation
			JOINT lankle
			{
				OFFSET -0.014790 -0.426874 -0.037428
				CHANNELS 3 Zrotation Yrotation Xrotation
				JOINT ltoe
				{
					OFFSET 0.041054 -0.060286 0.122042
					CHANNELS 3 Zrotation Yrotation Xrotation
					End Site
					{
						OFFSET 0.000000 0.000000 0.000000
					}
				}
			}
		}
	}
	JOINT rhip
	{
		OFFSET -0.060310 -0.090513 -0.013543
		CHANNELS 3 Zrotation Yrotation Xrotation
		JOINT rknee
		{
			OFFSET -0.043257 -0.383688 -0.004843
			CHANNELS 3 Zrotation Yrotation Xrotation
			JOINT rankle
			{
				OFFSET 0.019056 -0.420046 -0.034562
				CHANNELS 3 Zrotation Yrotation Xrotation
				JOINT rtoe
				{
					OFFSET -0.034840 -0.062106 0.130323
					CHANNELS 3 Zrotation Yrotation Xrotation
					End Site
					{
						OFFSET 0.000000 0.000000 0.000000
					}
				}
			}
		}
	}
	JOINT lowerback
	{
		OFFSET 0.004439 0.124404 -0.038385
		CHANNELS 3 Zrotation Yrotation Xrotation
		JOINT upperback
		{
			OFFSET 0.004488 0.137956 0.026820
			CHANNELS 3 Zrotation Yrotation Xrotation
			JOINT chest
			{
				OFFSET -0.002265 0.056032 0.002855
				CHANNELS 3 Zrotation Yrotation Xrotation
				JOINT lowerneck
				{
					OFFSET -0.013390 0.211636 -0.033468
					CHANNELS 3 Zrotation Yrotation Xrotation
					JOINT upperneck
					{
						OFFSET 0.010113 0.088937 0.050410
						CHANNELS 3 Zrotation Yrotation Xrotation
						End Site
						{
							OFFSET 0.000000 0.000000 0.000000
						}
					}
				}
				JOINT lclavicle
				{
					OFFSET 0.071702 0.114000 -0.018898
					CHANNELS 3 Zrotation Yrotation Xrotation
					JOINT lshoulder
					{
						OFFSET 0.122921 0.045205 -0.019046
						CHANNELS 3 Zrotation Yrotation Xrotation
						JOINT lelbow
						{
							OFFSET 0.255332 -0.015649 -0.022946
							CHANNELS 3 Zrotation Yrotation Xrotation
							JOINT lwrist
							{
								OFFSET 0.265709 0.012698 -0.007375
								CHANNELS 3 Zrotation Yrotation Xrotation
								End Site
								{
									OFFSET 0.000000 0.000000 0.000000
								}
							}
						}
					}
				}
				JOINT rclavicle
				{
					OFFSET -0.082954 0.112472 -0.023707
					CHANNELS 3 Zrotation Yrotation Xrotation
					JOINT rshoulder
					{
						OFFSET -0.113228 0.046853 -0.008472
						CHANNELS 3 Zrotation Yrotation Xrotation
						JOINT relbow
						{
							OFFSET -0.260127 -0.014369 -0.031269
							CHANNELS 3 Zrotation Yrotation Xrotation
							JOINT rwrist
							{
								OFFSET -0.269108 0.006794 -0.006027
								CHANNELS 3 Zrotation Yrotation Xrotation
								End Site
								{
									OFFSET 0.000000 0.000000 0.000000
								}
							}
						}
					}
				}
			}
		}
	}
}
MOTION
Frames: 7
Frame Time: 0.033333
0.657836 0.286030 0.988777 85.887246 -1.577137 83.774632 0.804581 -1.157197 -17.250143 -2.744377 -0.154228 13.666944 -0.614778 8.866333 -4.432556 0.000000 -0.000000 0.000000 2.486048 -5.180602 13.145320 -0.312202 6.917718 9.515445 -0.926101 -7.522179 -16.404448 0.000000 -0.000000 0.000000 1.947368 6.379889 13.416283 -0.865773 0.979372 -4.568219 -1.380561 1.491186 1.916987 2.985913 3.507076 -9.243592 -2.560153 -2.956838 11.830961 -30.475459 7.236588 -3.137434 -52.627479 -1.620965 9.757945 4.149286 -27.851780 10.469011 -1.327168 -2.074957 -2.221664 28.742683 0.491741 -2.700838 49.183755 10.108686 13.000726 -12.446811 27.616356 -9.256745 2.525360 1.898425 -6.062910 
0.694792 0.287964 0.982777 85.296239 -1.371607 84.669922 0.656486 -0.175787 -16.904731 -2.092972 -2.493346 2.389912 -1.321836 7.138226 -5.512972 0.000000 -0.000000 0.000000 1.876644 -5.622133 14.560674 -0.077326 7.392751 9.788089 -0.118097 -6.867721 -17.803825 0.000000 -0.000000 0.000000 2.246716 6.655162 12.497528 -1.066444 1.426590 -4.285696 -1.450388 1.949669 1.769129 3.329480 4.142337 -9.334433 -3.050783 -3.709941 11.837682 -30.814269 7.562248 -3.820808 -52.770369 -0.892839 9.816814 4.281961 -24.855772 10.691899 -1.318284 -2.235888 -0.674603 28.638808 0.538203 -2.927037 48.853029 10.924295 12.792718 -12.579849 27.489550 -9.227255 2.286607 2.858015 -5.632070 
0.734266 0.290513 0.976640 84.582516 -1.506297 85.164494 0.549635 -0.313053 -16.854774 -2.282206 -1.470627 -2.363808 -3.449479 6.690085 -7.623077 0.000000 -0.000000 0.000000 0.978461 -5.085624 15.879554 0.219396 8.849314 11.953938 1.922355 -6.671748 -18.937376 0.000000 -0.000000 0.000000 2.038073 7.112805 12.152871 -1.034535 1.576549 -4.371496 -1.533813 2.397204 1.566247 3.633739 4.534916 -9.113883 -3.462102 -4.131452 11.925698 -30.925091 8.190199 -3.686696 -53.033784 -0.046056 9.918792 4.488259 -24.324519 10.509467 -0.904409 -2.191120 -0.036855 28.668753 0.793324 -3.170839 48.583099 11.275311 12.968972 -12.763545 27.435439 -9.739104 2.131786 2.931010 -5.491451 
0.774683 0.293630 0.971530 85.033170 -1.837765 85.194757 0.080179 -1.857684 -18.355948 -3.160795 -0.449845 2.907060 -2.463224 7.470891 -6.445448 0.000000 -0.000000 0.000000 0.387446 -4.805415 17.145899 0.025334 9.547618 14.815853 2.819178 -6.261404 -19.442343 0.000000 -0.000000 0.000000 1.646576 7.587020 12.140343 -0.831144 0.994254 -4.353262 -1.594401 2.135114 1.679671 3.696967 4.232391 -9.654199 -3.553144 -3.895005 12.197618 -31.010839 8.418306 -3.778760 -53.293004 0.657209 10.009174 4.764329 -22.895371 10.585150 -0.959927 -1.895600 0.095430 28.991490 1.052828 -3.422567 48.253155 11.829444 13.277707 -13.020634 26.856537 -9.725792 2.026075 3.162554 -5.253632 
0.818889 0.297004 0.968561 84.754775 -2.307561 85.002294 -1.053402 -3.611597 -18.313715 -3.333094 -1.104722 8.257395 0.251982 8.428693 -5.854796 0.000000 -0.000000 0.000000 -0.247763 -4.136368 17.262883 -0.139559 9.281669 19.936934 4.074014 -6.198829 -17.538995 0.000000 -0.000000 0.000000 0.947837 8.170458 11.701938 -0.599956 1.150732 -4.215983 -1.506088 2.032073 1.927541 3.917297 3.598240 -9.120710 -3.735258 -3.516015 11.724368 -30.828467 8.635317 -3.613596 -53.724535 1.053872 9.944150 4.601681 -21.589311 10.888096 -1.760804 -0.935876 -0.703513 29.474309 0.617631 -3.807195 48.076078 11.546796 13.526977 -13.453833 26.891027 -10.117769 2.465620 2.953272 -5.156346 
0.866202 0.300700 0.969092 84.661318 -2.828356 84.970091 -2.079107 -4.489470 -17.614655 -3.791357 -2.717943 11.126534 0.302378 6.938622 -2.969427 0.000000 -0.000000 0.000000 -1.245626 -3.642310 16.535718 0.133231 8.844513 25.734751 5.577920 -5.242036 -12.171029 0.000000 -0.000000 0.000000 0.109317 8.236244 10.903472 -0.388848 1.212562 -4.131125 -1.544400 2.047487 1.759493 4.120965 3.195335 -8.610057 -3.511253 -3.104078 12.226030 -31.270611 9.302133 -3.570215 -53.129731 1.844713 10.054384 5.018361 -20.731577 10.897160 -2.736646 -1.505761 0.029734 30.454705 -0.150731 -3.784795 47.982088 11.130273 13.806386 -13.643510 26.295057 -10.952626 3.096717 2.919175 -4.638596 
0.912982 0.304655 0.973662 85.443185 -3.193849 84.756847 -3.058457 -5.314443 -16.535753 -4.616088 -3.129208 14.718334 2.833261 8.076863 -3.087761 0.000000 -0.000000 0.000000 -2.408769 -3.705466 13.489248 1.003210 7.595025 34.232103 8.180206 -4.186053 -0.546502 0.000000 -0.000000 0.000000 -0.403815 7.914638 10.152546 -0.145745 1.111941 -4.039589 -1.675937 1.609643 1.604148 3.974038 1.920524 -7.205340 -3.214543 -1.718517 11.998761 -31.114243 9.927859 -3.389105 -53.369340 1.810987 9.752686 5.271477 -19.571032 10.701438 -4.460057 -0.220345 0.244669 30.678019 -1.232063 -4.002818 48.993925 10.765979 14.126567 -13.634066 24.501541 -11.901255 4.147680 2.333240 -4.326951 
